<svg xmlns="http://www.w3.org/2000/svg" width="93" height="24"><path fill="#ff4b5f" d="M81.715 15.195c.265-2.338 1.237-4.239 2.681-4.239s2.004 1.901 1.739 4.239c-.266 2.338-1.267 4.208-2.711 4.208s-1.974-1.87-1.71-4.208zM93 7.523c0-.124-.088-.156-.088-.156h-5.893s-.177.032-.177.188c0 0-.118.842-.265 2.153-.708-1.748-2.004-2.965-4.037-2.965-3.86 0-6.394 3.807-6.895 8.083-.5 4.181 1.06 8.893 4.773 8.893 2.063 0 3.83-1.498 5.068-3.526.118 2.216 1.562 3.557 3.595 3.557 1.65 0 3.389-1.217 3.801-2.215.383-.843-1.738.218-1.178-4.744C91.969 14.638 93 7.523 93 7.523zM66.452 20.35c-2.151 0-1.503-4.962-1.267-6.335 0 0 .943-.312 1.709-.187 1.473.28 1.945 1.373 1.856 3.058-.03.905-.766 3.464-2.298 3.464zm3.153-15.416c-.236 1.904-3.153 3.308-3.153 3.308.295-1.092 1.15-4.15 2.416-4.15.737 0 .766.437.737.842zm-3.801 5.68C77.825 9.208 75.88-.184 69.929.003 63.034.19 59.233 9.208 59.233 16.01c0 4.307 2.416 7.864 6.865 7.864 4.567 0 8.339-3.432 7.985-8.488-.324-4.431-5.068-5.367-8.427-4.15zm-7.985-2.965h.03c-4.597-.998-8.752-.936-12.818 0-.03 0-.118.031-.118.156 0 0-.56 5.024-1.444 7.458-1.68 4.494-3.506 4.712-3.565 5.305-.088.656.648 3.433 3.388 3.433 2.387 0 4.037-1.623 4.921-5.367.59-2.466.943-5.212 1.06-8.114h2.387c-.53 4.619-1.473 12.638-1.473 12.638 0 .156.118.156.118.156h5.687s.118 0 .118-.156c0 0 1.709-14.666 1.797-15.384 0-.094-.059-.125-.088-.125zm-30.114 7.547c.266-2.338 1.238-4.239 2.682-4.239 1.443 0 2.003 1.901 1.738 4.239-.265 2.338-1.267 4.208-2.71 4.208-1.444 0-1.975-1.87-1.71-4.208zM38.99 7.523c0-.124-.088-.156-.088-.156H33.01s-.177.032-.177.188c0 0-.118.842-.265 2.153-.707-1.748-2.004-2.965-4.037-2.965-3.86 0-6.394 3.807-6.894 8.083-.501 4.181 1.06 8.893 4.773 8.893 2.062 0 3.83-1.498 5.068-3.526.118 2.216 1.562 3.557 3.595 3.557 1.65 0 3.388-1.217 3.8-2.215.384-.843-1.738.218-1.178-4.744.265-2.153 1.296-9.268 1.296-9.268zm-23.778 5.274c4.273-1.342 7.249-4.65 7.308-7.926.058-2.777-1.798-4.93-4.744-4.65-2.711.25-3.536 2.185-3.33 2.403.619.624 2.357 4.93-.678 6.803l-3.064-8.27S10.645.97 10.498.97H3.043c-.236 0-.177.219-.177.219l4.774 10.08C3.456 12.546.185 15.823.008 19.038-.139 21.783 1.718 24 4.281 24c2.71 0 4.213-2.559 3.977-2.965-.56-.624-2.121-3.994.708-6.116l3.182 8.238s.03.156.177.156h7.955c.177 0 .089-.156.089-.156z"/></svg>