<svg xmlns="http://www.w3.org/2000/svg" width="192" height="24"><path fill="#003791" d="M14.446.25v6.19h-2.422c-3.06 0-5.524 2.442-5.524 5.473 0 3.032 2.464 5.474 5.524 5.474h2.422v6.19a11.842 11.842 0 009.645-11.664c0-5.768-4.122-10.568-9.645-11.663"/><path fill="#ff4b5f" d="M12.025 19.326c-4.122 0-7.479-3.326-7.479-7.41s3.357-7.41 7.479-7.41h.467V0h-.467C5.396 0 0 5.347 0 11.916c0 6.61 5.396 11.958 12.025 11.958h.467v-4.548zm28.54-3.137a5.309 5.309 0 01-3.382 1.21 5.328 5.328 0 01-5.343-5.344 5.328 5.328 0 015.343-5.344c1.336 0 2.589.5 3.507 1.336l1.878-1.88a7.946 7.946 0 00-5.385-2.087c-4.425 0-7.973 3.59-7.973 7.975 0 4.384 3.548 8.017 7.973 8.017 2.046 0 3.883-.752 5.26-2.004zm84.95-11.479l-5.886 7.098-5.928-7.098-.042.084V4.71h-2.379v14.698h2.38V8.635l5.969 7.098 5.886-6.931v10.606h2.338V4.71zm-67.93 7.345a5.325 5.325 0 01-5.338 5.345 5.325 5.325 0 01-5.339-5.345 5.325 5.325 0 015.339-5.344 5.325 5.325 0 015.338 5.344m2.682 0c0-4.384-3.59-7.975-7.974-7.975-4.383 0-7.973 3.59-7.973 7.975 0 4.384 3.548 7.975 7.973 7.975 4.384 0 7.974-3.549 7.974-7.975m45.96 0c0 2.965-2.422 5.345-5.344 5.345a5.328 5.328 0 01-5.343-5.345 5.328 5.328 0 015.343-5.344 5.328 5.328 0 015.344 5.344m2.63 0c0-4.384-3.549-7.975-7.974-7.975-4.383 0-7.973 3.59-7.973 7.975 0 4.384 3.548 7.975 7.973 7.975 4.384 0 7.974-3.549 7.974-7.975M92.868 4.71h-3.214L83.6 10.89h-2.463V4.71H78.8v14.698h2.338V13.27h2.42l6.054 6.138h3.173l-7.18-7.307z"/><path fill="#003791" d="M191.888 4.71h-3.173l-6.094 6.18h-2.463V4.71h-2.338v14.698h2.338V13.27h2.463l6.011 6.138h3.173l-7.139-7.307zm-42.537 9.186l2.755-6.18 2.756 6.18zm7.973 5.512h2.589l-6.47-14.698h-2.673l-6.47 14.698h2.588l1.42-3.174h7.597z"/><path fill="#ff4b5f" d="M71.538 17.07h-6.179v-3.8h6.22c1.044 0 1.879.876 1.879 1.879-.042 1.043-.877 1.92-1.92 1.92zm-6.179-9.98h6.179a1.87 1.87 0 011.878 1.879 1.87 1.87 0 01-1.878 1.879h-6.179zm10.437 8.059a4.226 4.226 0 00-1.336-3.09c.793-.794 1.336-1.88 1.336-3.09 0-2.338-1.879-4.259-4.217-4.259H62.98v14.74h8.6a4.304 4.304 0 004.216-4.301z"/><path fill="#003791" d="M172.517 4.75v6.138h-8.558V4.75h-2.379v14.614h2.38v-6.096h8.557v6.096h2.38V4.75zm-33.309 12.32h-6.179v-3.8h6.179c1.043 0 1.878.876 1.878 1.879 0 1.043-.835 1.92-1.878 1.92zm4.258-1.921c0-2.339-1.92-4.26-4.258-4.26h-6.179V7.09h9.017V4.71H130.65v14.74h8.558c2.337-.042 4.258-1.963 4.258-4.301z"/></svg>