<svg width="192" height="32" viewBox="0 0 192 32" fill="none" xmlns="http://www.w3.org/2000/svg">
<path d="M14.197 4V10.2222H11.7354C8.62612 10.2222 6.1214 12.6772 6.1214 15.7249C6.1214 18.7725 8.62612 21.2275 11.7354 21.2275H14.197V27.4497C19.811 26.3915 23.9999 21.5661 23.9999 15.7249C23.9999 9.92593 19.811 5.10053 14.197 4Z" fill="#003790"/>
<path d="M12.2213 23.4286C8.03239 23.4286 4.62078 20.0847 4.62078 15.9788C4.62078 11.873 8.03239 8.5291 12.2213 8.5291H12.6964V4C12.5236 4 12.3509 4 12.2213 4C5.48448 4 0 9.37566 0 15.9788C0 22.6243 5.48448 28 12.2213 28C12.3941 28 12.5668 28 12.6964 28V23.4286H12.2213Z" fill="#FC5055"/>
<path d="M41.3072 20.1149C40.3926 20.8668 39.2286 21.3264 37.94 21.3264C34.9885 21.3264 32.6189 18.9452 32.6189 15.9791C32.6189 13.0131 34.9885 10.6319 37.94 10.6319C39.2702 10.6319 40.5173 11.1332 41.4319 11.9687L43.3025 10.0888C41.8891 8.79373 40.0185 8 37.94 8C33.5335 8 30 11.5927 30 15.9791C30 20.3655 33.5335 24 37.94 24C39.9769 24 41.806 23.248 43.1778 21.9948L41.3072 20.1149Z" fill="#003790"/>
<path d="M125.903 8.62665L120.042 15.7285L114.139 8.62665L114.097 8.7102V8.62665H111.727V23.3316H114.097V12.5535L120.042 19.6554L125.903 12.7206V23.3316H128.231V8.62665H125.903Z" fill="#003790"/>
<path fill-rule="evenodd" clip-rule="evenodd" d="M52.9884 23.9582C57.3533 23.9582 60.9284 20.4073 60.9284 15.9791C60.9284 11.5927 57.3533 8 52.9884 8C48.6235 8 45.0485 11.5927 45.0485 15.9791C45.0485 20.3655 48.5819 23.9582 52.9884 23.9582ZM52.9468 10.6319C55.8983 10.6319 58.2678 13.0131 58.2678 15.9791C58.2678 18.9452 55.8983 21.3264 52.9468 21.3264C49.9953 21.3264 47.6258 18.9452 47.6258 15.9791C47.6258 13.0131 49.9953 10.6319 52.9468 10.6319Z" fill="#003790"/>
<path fill-rule="evenodd" clip-rule="evenodd" d="M101.547 23.9582C105.912 23.9582 109.487 20.4073 109.487 15.9791C109.487 11.5927 105.912 8 101.547 8C97.1824 8 93.6074 11.5927 93.6074 15.9791C93.6074 20.3655 97.1408 23.9582 101.547 23.9582ZM101.506 10.6319C104.457 10.6319 106.827 13.0131 106.827 15.9791C106.827 18.9452 104.457 21.3264 101.506 21.3264C98.5544 21.3264 96.1849 18.9452 96.1849 15.9791C96.1849 13.0131 98.5544 10.6319 101.506 10.6319Z" fill="#003790"/>
<path d="M93.3949 8.62665H90.194L84.1663 14.8094H81.7136V8.62665H79.3857V23.3316H81.7136V17.1906H84.1247L90.1524 23.3316H93.3118L86.1617 16.0209L93.3949 8.62665Z" fill="#003790"/>
<path d="M192 8.62665H188.841L182.771 14.8094H180.319V8.62665H177.991V23.3316H180.319V17.1906H182.771L188.757 23.3316H191.917L184.808 16.0209L192 8.62665Z" fill="#003790"/>
<path fill-rule="evenodd" clip-rule="evenodd" d="M160.157 23.3316H157.58L156.166 20.1567H148.6L147.187 23.3316H144.61L151.053 8.62665H153.714L160.157 23.3316ZM152.383 11.6345L149.64 17.8172H155.127L152.383 11.6345Z" fill="#003790"/>
<path fill-rule="evenodd" clip-rule="evenodd" d="M76.3927 19.0705C76.3927 17.859 75.8938 16.7729 75.0624 15.9791C75.8523 15.1854 76.3927 14.0992 76.3927 12.8877C76.3927 10.5483 74.522 8.62665 72.1941 8.62665H63.6306V23.2898V23.3734H72.1941C74.522 23.3316 76.3927 21.4099 76.3927 19.0705ZM66.0001 11.0079H72.1525C73.1918 11.0079 74.0232 11.8434 74.0232 12.8878C74.0232 13.9322 73.1918 14.7677 72.1525 14.7677H66.0001V11.0079ZM66.0001 20.9921H72.1525C73.1918 20.9921 74.0232 20.1149 74.0648 19.0705C74.0648 18.0679 73.2334 17.1906 72.1941 17.1906H66.0001V20.9921Z" fill="#003790"/>
<path d="M172.711 8.66843V14.8094H164.189V8.66843H161.82V23.2898H164.189V17.1906H172.711V23.2898H175.081V8.66843H172.711Z" fill="#003790"/>
<path fill-rule="evenodd" clip-rule="evenodd" d="M139.538 14.8094C141.866 14.8094 143.778 16.7311 143.778 19.0705C143.778 21.4099 141.866 23.3316 139.538 23.3734H131.016V23.2898V8.62665H142.365V11.0078H133.386V14.8094H139.538ZM133.386 20.9921H139.538C140.577 20.9921 141.409 20.1149 141.409 19.0705C141.409 18.0679 140.577 17.1906 139.538 17.1906H133.386V20.9921Z" fill="#003790"/>
</svg>
