<svg xmlns="http://www.w3.org/2000/svg" width="18" height="14" fill="none">
  <path
    d="M0.9 1.5H17.1C17.3387 1.5 17.5676 1.42098 17.7364 1.28033C17.9052 1.13968 18 0.948912 18 0.75C18 0.551088 17.9052 0.360322 17.7364 0.21967C17.5676 0.0790178 17.3387 0 17.1 0H0.9C0.661305 0 0.432387 0.0790178 0.263604 0.21967C0.0948213 0.360322 0 0.551088 0 0.75C0 0.948912 0.0948213 1.13968 0.263604 1.28033C0.432387 1.42098 0.661305 1.5 0.9 1.5ZM0.9 7.5H17.1C17.3387 7.5 17.5676 7.42098 17.7364 7.28033C17.9052 7.13968 18 6.94891 18 6.75C18 6.55109 17.9052 6.36032 17.7364 6.21967C17.5676 6.07902 17.3387 6 17.1 6H0.9C0.661305 6 0.432387 6.07902 0.263604 6.21967C0.0948213 6.36032 0 6.55109 0 6.75C0 6.94891 0.0948213 7.13968 0.263604 7.28033C0.432387 7.42098 0.661305 7.5 0.9 7.5ZM0.9 13.5H17.1C17.3387 13.5 17.5676 13.421 17.7364 13.2803C17.9052 13.1397 18 12.9489 18 12.75C18 12.5511 17.9052 12.3603 17.7364 12.2197C17.5676 12.079 17.3387 12 17.1 12H0.9C0.661305 12 0.432387 12.079 0.263604 12.2197C0.0948213 12.3603 0 12.5511 0 12.75C0 12.9489 0.0948213 13.1397 0.263604 13.2803C0.432387 13.421 0.661305 13.5 0.9 13.5Z"
    fill="#292929" />
</svg>