<svg width="14" height="15" viewBox="0 0 14 15" fill="none" xmlns="http://www.w3.org/2000/svg">
<path d="M6.99935 4.58659C6.84464 4.58659 6.69627 4.64805 6.58687 4.75744C6.47748 4.86684 6.41602 5.01521 6.41602 5.16992V7.50325C6.41602 7.65796 6.47748 7.80634 6.58687 7.91573C6.69627 8.02513 6.84464 8.08659 6.99935 8.08659C7.15406 8.08659 7.30243 8.02513 7.41183 7.91573C7.52123 7.80634 7.58268 7.65796 7.58268 7.50325V5.16992C7.58268 5.01521 7.52123 4.86684 7.41183 4.75744C7.30243 4.64805 7.15406 4.58659 6.99935 4.58659ZM7.53602 9.61492C7.52325 9.57775 7.5056 9.54244 7.48352 9.50992L7.41352 9.42242C7.33149 9.34148 7.22732 9.28665 7.11416 9.26485C7.001 9.24305 6.88392 9.25525 6.77768 9.29992C6.70699 9.32946 6.64189 9.3709 6.58519 9.42242C6.53112 9.47693 6.48835 9.54157 6.45932 9.61264C6.43029 9.68371 6.41557 9.75982 6.41602 9.83659C6.41694 9.91282 6.43279 9.98812 6.46268 10.0583C6.48888 10.1306 6.53068 10.1964 6.58512 10.2508C6.63955 10.3053 6.7053 10.3471 6.77768 10.3733C6.84751 10.4041 6.92301 10.4201 6.99935 10.4201C7.07569 10.4201 7.15119 10.4041 7.22102 10.3733C7.29341 10.3471 7.35915 10.3053 7.41359 10.2508C7.46802 10.1964 7.50982 10.1306 7.53602 10.0583C7.56591 9.98812 7.58176 9.91282 7.58268 9.83659C7.58555 9.79775 7.58555 9.75876 7.58268 9.71992C7.57264 9.68272 7.5569 9.6473 7.53602 9.61492ZM6.99935 1.66992C5.84563 1.66992 4.71781 2.01204 3.75853 2.65302C2.79924 3.29399 2.05157 4.20503 1.61005 5.27093C1.16854 6.33684 1.05302 7.50973 1.2781 8.64128C1.50318 9.77284 2.05876 10.8122 2.87456 11.628C3.69037 12.4439 4.72977 12.9994 5.86132 13.2245C6.99288 13.4496 8.16577 13.3341 9.23167 12.8926C10.2976 12.451 11.2086 11.7034 11.8496 10.7441C12.4906 9.78479 12.8327 8.65698 12.8327 7.50325C12.8327 6.73721 12.6818 5.97867 12.3886 5.27093C12.0955 4.5632 11.6658 3.92014 11.1241 3.37847C10.5825 2.83679 9.9394 2.40711 9.23167 2.11396C8.52394 1.82081 7.7654 1.66992 6.99935 1.66992ZM6.99935 12.1699C6.07637 12.1699 5.17412 11.8962 4.40669 11.3834C3.63926 10.8707 3.04112 10.1418 2.68791 9.28911C2.3347 8.43639 2.24229 7.49808 2.42235 6.59283C2.60242 5.68759 3.04687 4.85607 3.69952 4.20342C4.35216 3.55078 5.18369 3.10632 6.08893 2.92626C6.99417 2.74619 7.93249 2.83861 8.78521 3.19182C9.63793 3.54503 10.3668 4.14316 10.8795 4.91059C11.3923 5.67802 11.666 6.58028 11.666 7.50325C11.666 8.74093 11.1744 9.92792 10.2992 10.8031C9.42401 11.6783 8.23703 12.1699 6.99935 12.1699Z" fill="#292929"/>
</svg>
