<svg width="24" height="25" viewBox="0 0 24 25" fill="none" xmlns="http://www.w3.org/2000/svg">
  <path
    d="M18 7.49638H17.65C17.8782 7.02914 17.9979 6.51636 18 5.99638C18.003 5.2997 17.7975 4.61807 17.4098 4.03921C17.0221 3.46035 16.4701 3.01076 15.8247 2.74831C15.1794 2.48587 14.4703 2.42258 13.7886 2.56659C13.107 2.7106 12.4841 3.05532 12 3.55638C11.5159 3.05532 10.893 2.7106 10.2114 2.56659C9.52975 2.42258 8.82061 2.48587 8.17525 2.74831C7.5299 3.01076 6.97786 3.46035 6.59019 4.03921C6.20252 4.61807 5.99697 5.2997 6 5.99638C6.00213 6.51636 6.12178 7.02914 6.35 7.49638H6C5.20435 7.49638 4.44129 7.81245 3.87868 8.37506C3.31607 8.93766 3 9.70073 3 10.4964V12.4964C3 12.7616 3.10536 13.0159 3.29289 13.2035C3.48043 13.391 3.73478 13.4964 4 13.4964H5V19.4964C5 20.292 5.31607 21.0551 5.87868 21.6177C6.44129 22.1803 7.20435 22.4964 8 22.4964H16C16.7956 22.4964 17.5587 22.1803 18.1213 21.6177C18.6839 21.0551 19 20.292 19 19.4964V13.4964H20C20.2652 13.4964 20.5196 13.391 20.7071 13.2035C20.8946 13.0159 21 12.7616 21 12.4964V10.4964C21 9.70073 20.6839 8.93766 20.1213 8.37506C19.5587 7.81245 18.7956 7.49638 18 7.49638ZM11 20.4964H8C7.73478 20.4964 7.48043 20.391 7.29289 20.2035C7.10536 20.0159 7 19.7616 7 19.4964V13.4964H11V20.4964ZM11 11.4964H5V10.4964C5 10.2312 5.10536 9.97681 5.29289 9.78927C5.48043 9.60173 5.73478 9.49638 6 9.49638H11V11.4964ZM11 7.49638H9.5C9.20333 7.49638 8.91332 7.4084 8.66665 7.24358C8.41997 7.07876 8.22771 6.84449 8.11418 6.5704C8.00065 6.29631 7.97094 5.99471 8.02882 5.70374C8.0867 5.41277 8.22956 5.14549 8.43934 4.93571C8.64912 4.72594 8.91639 4.58308 9.20736 4.5252C9.49834 4.46732 9.79994 4.49702 10.074 4.61056C10.3481 4.72409 10.5824 4.91635 10.7472 5.16302C10.912 5.40969 11 5.6997 11 5.99638V7.49638ZM13 5.99638C13 5.6997 13.088 5.40969 13.2528 5.16302C13.4176 4.91635 13.6519 4.72409 13.926 4.61056C14.2001 4.49702 14.5017 4.46732 14.7926 4.5252C15.0836 4.58308 15.3509 4.72594 15.5607 4.93571C15.7704 5.14549 15.9133 5.41277 15.9712 5.70374C16.0291 5.99471 15.9994 6.29631 15.8858 6.5704C15.7723 6.84449 15.58 7.07876 15.3334 7.24358C15.0867 7.4084 14.7967 7.49638 14.5 7.49638H13V5.99638ZM17 19.4964C17 19.7616 16.8946 20.0159 16.7071 20.2035C16.5196 20.391 16.2652 20.4964 16 20.4964H13V13.4964H17V19.4964ZM19 11.4964H13V9.49638H18C18.2652 9.49638 18.5196 9.60173 18.7071 9.78927C18.8946 9.97681 19 10.2312 19 10.4964V11.4964Z"
    fill="black" />
</svg>