<svg width="108" height="20" viewBox="0 0 108 20" xmlns="http://www.w3.org/2000/svg">
  <g clip-path="url(#clip0_361_1833)">
    <path clip-rule="evenodd"
      d="M31.7564 14.8449C30.8028 14.8449 29.8706 14.5608 29.0775 14.0286C28.2845 13.4963 27.6661 12.7397 27.3007 11.8544C26.9352 10.9691 26.839 9.99473 27.0242 9.05449C27.2095 8.11425 27.6678 7.25027 28.3413 6.57171C29.0148 5.89315 29.8733 5.43045 30.8083 5.24206C31.7433 5.05368 32.7129 5.14806 33.5946 5.51329C34.4763 5.87852 35.2305 6.4982 35.7619 7.29405C36.2934 8.08991 36.5782 9.02623 36.5805 9.98472C36.5825 10.6226 36.4592 11.2545 36.2176 11.8444C35.976 12.4342 35.6209 12.9703 35.1727 13.4218C34.7245 13.8734 34.192 14.2316 33.6057 14.4758C33.0195 14.72 32.391 14.8454 31.7564 14.8449ZM31.7564 4.01765e-05C30.0823 -0.00472914 28.434 0.415195 26.9643 1.22092C25.4945 2.02665 24.2509 3.19213 23.3484 4.60941C22.4459 6.0267 21.9139 7.64996 21.8015 9.32887C21.6892 11.0078 22.0001 12.688 22.7056 14.214C23.4111 15.74 24.4883 17.0624 25.8375 18.0587C27.1866 19.055 28.7641 19.693 30.4237 19.9137C32.0834 20.1343 33.7717 19.9304 35.3321 19.3209C36.8926 18.7113 38.2748 17.7159 39.3507 16.4267C38.7277 17.6245 37.7909 18.6284 36.6414 19.3298V19.8468H41.6789V9.95791C41.6688 7.32002 40.6218 4.79306 38.766 2.92778C36.9102 1.0625 34.3961 0.0101278 31.7717 4.01765e-05H31.7564ZM79.4939 14.9368H72.9475V11.6967H79.372C80.176 11.6967 81.1134 12.4627 81.1134 13.3206C81.1094 13.75 80.9371 14.1605 80.6339 14.4631C80.3308 14.7656 79.9211 14.9359 79.4939 14.9368ZM72.9475 5.06323H78.446C78.8585 5.09392 79.246 5.27378 79.5368 5.56952C79.8275 5.86526 80.0018 6.25685 80.0274 6.67181C80.022 6.8953 79.9724 7.11547 79.8813 7.31944C79.7903 7.52341 79.6597 7.70709 79.4972 7.85972C79.3347 8.01236 79.1436 8.13089 78.9349 8.20838C78.7263 8.28588 78.5044 8.32077 78.2822 8.31103H72.9475V5.06323ZM83.9674 9.39874C84.5611 8.48617 84.8949 7.42762 84.9325 6.3379C84.9701 5.24819 84.7102 4.16893 84.1808 3.2172C83.6425 2.29235 82.8747 1.52379 81.9522 0.98671C81.0298 0.449634 79.9845 0.162443 78.9185 0.153238H67.9139V19.8468H80.2255C81.8008 19.8663 83.3193 19.2564 84.4475 18.1512C85.5756 17.046 86.2212 15.5358 86.2422 13.9525C86.2519 13.066 86.0492 12.1902 85.6513 11.3989C85.2534 10.6077 84.6719 9.92428 83.956 9.4064L83.9674 9.39874ZM62.9222 7.42248C64.5759 11.9035 64.6598 15.9709 64.6598 19.8545H59.5614C59.5614 16.7025 59.4509 13.8338 58.7993 11.2409C57.9229 7.76335 56.2844 5.23941 54.764 5.23941C53.2436 5.23941 51.6013 7.76335 50.7249 11.2409C50.0657 13.8338 49.9628 16.6297 49.9628 19.8545H44.8416C44.8416 16.3195 44.9216 11.9035 46.5753 7.42248C48.1147 3.24018 50.9916 4.01765e-05 54.7564 4.01765e-05C58.5211 4.01765e-05 61.3942 3.24018 62.9336 7.41482L62.9222 7.42248ZM14.7313 0.164728H19.8449V2.23673C19.8481 3.72562 19.5191 5.19628 18.8821 6.54047C18.245 7.88466 17.3162 9.06816 16.164 10.0039C17.3151 10.9415 18.243 12.1259 18.8799 13.4704C19.5168 14.815 19.8465 16.2857 19.8449 17.7748V19.8468H14.7313V17.254C14.7313 15.9721 14.2246 14.7427 13.3228 13.8362C12.421 12.9298 11.1978 12.4206 9.92246 12.4206C8.64708 12.4206 7.42395 12.9298 6.52212 13.8362C5.62029 14.7427 5.11365 15.9721 5.11365 17.254V19.8468H1.02727e-05V17.7748C-0.00212083 16.2856 0.327352 14.8147 0.964275 13.4701C1.6012 12.1254 2.52943 10.9411 3.68092 10.0039C2.52993 9.06706 1.602 7.88333 0.965097 6.5394C0.328194 5.19546 -0.00155216 3.72534 1.02727e-05 2.23673V0.160898H5.11365V2.75377C5.11365 3.3885 5.23804 4.01702 5.4797 4.60344C5.72137 5.18985 6.07558 5.72268 6.52212 6.1715C6.96866 6.62032 7.49878 6.97635 8.08221 7.21925C8.66564 7.46215 9.29096 7.58717 9.92246 7.58717C10.554 7.58717 11.1793 7.46215 11.7627 7.21925C12.3461 6.97635 12.8763 6.62032 13.3228 6.1715C13.7693 5.72268 14.1236 5.18985 14.3652 4.60344C14.6069 4.01702 14.7313 3.3885 14.7313 2.75377V0.160898V0.164728ZM98.0928 14.8449C97.1385 14.848 96.2048 14.5664 95.4097 14.036C94.6147 13.5056 93.994 12.7501 93.6262 11.865C93.2584 10.98 93.16 10.0052 93.3435 9.06392C93.527 8.12267 93.9841 7.25726 94.657 6.57717C95.3299 5.89708 96.1884 5.43285 97.1238 5.24322C98.0593 5.05359 99.0296 5.14708 99.9122 5.51185C100.795 5.87662 101.55 6.49629 102.082 7.29247C102.614 8.08865 102.899 9.02557 102.902 9.98472C102.903 11.2683 102.397 12.4999 101.495 13.409C100.594 14.3181 99.3699 14.8304 98.0928 14.8334V14.8449ZM108 9.93493C107.986 7.58921 107.151 5.3233 105.641 3.53434C104.132 1.74538 102.044 0.547512 99.7437 0.150672C97.4435 -0.246167 95.0777 0.183345 93.061 1.36393C91.0443 2.54451 89.5053 4.40085 88.7138 6.60758C87.9223 8.81431 87.9287 11.2307 88.732 13.4331C89.5352 15.6355 91.0841 17.4836 93.1071 18.6533C95.13 19.823 97.4981 20.2398 99.7961 19.8306C102.094 19.4213 104.176 18.2123 105.676 16.4152C105.052 17.6122 104.115 18.6158 102.966 19.3183V19.8353H108V9.95791V9.93493Z" />
  </g>
  <defs>
    <clipPath id="clip0_361_1833">
      <rect width="108" height="20" />
    </clipPath>
  </defs>
</svg>