<svg width="0" height="0"><symbol xmlns="http://www.w3.org/2000/svg" id="arrowCircle" fill="none" viewBox="0 0 32 32"><rect width="31" height="31" x=".5" y="31.5" stroke="currentColor" rx="15.5" transform="rotate(-90 .5 31.5)"/><path fill="currentColor" stroke="currentColor" d="M22.707 18.707a1 1 0 0 1-1.414 0L16 13.414l-5.293 5.293a1 1 0 0 1-1.414-1.414l6-6a1 1 0 0 1 1.414 0l6 6a1 1 0 0 1 0 1.414Z"/></symbol><symbol xmlns="http://www.w3.org/2000/svg" id="arrowLink" fill="none" viewBox="0 0 24 24"><path fill="currentColor" d="M8 7a1 1 0 0 1 1-1h8a1 1 0 0 1 1 1v8a1 1 0 1 1-2 0V9.414l-8.293 8.293a1 1 0 0 1-1.414-1.414L14.586 8H9a1 1 0 0 1-1-1Z"/></symbol><symbol xmlns="http://www.w3.org/2000/svg" id="arrowRight" fill="none" viewBox="0 0 16 17"><path fill="currentColor" d="M6.195 13.157a.667.667 0 0 1 0-.943l3.529-3.528-3.529-3.529a.667.667 0 1 1 .943-.943l4 4c.26.26.26.683 0 .943l-4 4a.667.667 0 0 1-.943 0Z"/></symbol></svg>