<svg width="0" height="0"><symbol xmlns="http://www.w3.org/2000/svg" id="arrowCircle" fill="none" viewBox="0 0 32 32"><rect width="31" height="31" x=".5" y="31.5" stroke="currentColor" rx="15.5" transform="rotate(-90 .5 31.5)"/><path fill="currentColor" stroke="currentColor" d="M22.707 18.707a1 1 0 0 1-1.414 0L16 13.414l-5.293 5.293a1 1 0 0 1-1.414-1.414l6-6a1 1 0 0 1 1.414 0l6 6a1 1 0 0 1 0 1.414Z"/></symbol><symbol xmlns="http://www.w3.org/2000/svg" id="check" fill="none" viewBox="0 0 24 24"><path stroke="currentColor" stroke-linecap="round" stroke-linejoin="round" stroke-width="2.5" d="m4.892 13.269 4.274 4.274L18.709 8"/></symbol><symbol xmlns="http://www.w3.org/2000/svg" id="close" fill="none" viewBox="0 0 24 24"><path fill="currentColor" d="M5.293 5.293a1 1 0 0 1 1.414 0L12 10.586l5.293-5.293a1 1 0 1 1 1.414 1.414L13.414 12l5.293 5.293a1 1 0 0 1-1.414 1.414L12 13.414l-5.293 5.293a1 1 0 0 1-1.414-1.414L10.586 12 5.293 6.707a1 1 0 0 1 0-1.414Z"/></symbol><symbol xmlns="http://www.w3.org/2000/svg" id="warningCircle" fill="none" viewBox="0 0 20 20"><path fill="currentColor" d="M10 2a8 8 0 1 0 0 16 8 8 0 0 0 0-16ZM0 10C0 4.477 4.477 0 10 0s10 4.477 10 10-4.477 10-10 10S0 15.523 0 10Z"/><path fill="currentColor" d="M10 12a1 1 0 0 1-1-1V5a1 1 0 0 1 2 0v6a1 1 0 0 1-1 1Zm-1.5 2.5a1.5 1.5 0 1 1 3 0 1.5 1.5 0 0 1-3 0Z"/></symbol></svg>