<svg width="0" height="0"><symbol xmlns="http://www.w3.org/2000/svg" id="check" fill="none" viewBox="0 0 24 24"><path stroke="currentColor" stroke-linecap="round" stroke-linejoin="round" stroke-width="2.5" d="m4.892 13.269 4.274 4.274L18.709 8"/></symbol><symbol xmlns="http://www.w3.org/2000/svg" id="close" fill="none" viewBox="0 0 24 24"><path fill="currentColor" d="M5.293 5.293a1 1 0 0 1 1.414 0L12 10.586l5.293-5.293a1 1 0 1 1 1.414 1.414L13.414 12l5.293 5.293a1 1 0 0 1-1.414 1.414L12 13.414l-5.293 5.293a1 1 0 0 1-1.414-1.414L10.586 12 5.293 6.707a1 1 0 0 1 0-1.414Z"/></symbol><symbol xmlns="http://www.w3.org/2000/svg" id="documentFilled" fill="none" viewBox="0 0 22 28"><path fill="currentColor" fill-rule="evenodd" d="M.333 3.038A2.374 2.374 0 0 1 2.71.667h11.053c.26 0 .51.102.698.288l6.909 6.85c.188.188.297.444.297.714v16.443a2.374 2.374 0 0 1-2.377 2.371H2.71a2.374 2.374 0 0 1-2.377-2.371V3.038ZM2.71 2.67H11c.103 0 .201.04.274.108a.36.36 0 0 1 .113.261V9.89a1 1 0 0 0 .995 1.002h6.908c.214 0 .387.165.387.369v13.702a.378.378 0 0 1-.387.369H2.71a.378.378 0 0 1-.387-.37V3.039c0-.204.173-.369.387-.369Zm10.909.595a.4.4 0 0 1 .423.086l4.955 4.913a.356.356 0 0 1 .077.4.388.388 0 0 1-.356.225h-4.955a.378.378 0 0 1-.386-.369V3.606a.37.37 0 0 1 .242-.342Z" clip-rule="evenodd"/><path fill="currentColor" fill-rule="evenodd" d="M11 2.67H2.71a.378.378 0 0 0-.387.368v21.924c0 .204.173.369.387.369h16.58a.378.378 0 0 0 .387-.37V11.26a.378.378 0 0 0-.387-.37h-6.908a.998.998 0 0 1-.995-1V3.037a.36.36 0 0 0-.113-.26.397.397 0 0 0-.274-.109Zm0 9.925c-.535 0-.995.3-.995.867v4.766a.37.37 0 0 1-.242.342.4.4 0 0 1-.424-.086l-.404-.401a.99.99 0 0 0-1.397 0 1.006 1.006 0 0 0 0 1.426l2.764 2.74a.99.99 0 0 0 1.396 0l2.763-2.74a1.006 1.006 0 0 0 0-1.426.99.99 0 0 0-1.396 0l-.404.4a.4.4 0 0 1-.424.087.37.37 0 0 1-.242-.342v-4.766c0-.567-.46-.867-.995-.867Z" clip-rule="evenodd"/></symbol><symbol xmlns="http://www.w3.org/2000/svg" id="documentOutline" fill="none" viewBox="0 0 22 28"><path fill="currentColor" d="M.333 3.333A2.667 2.667 0 0 1 3 .667h10.667c.353 0 .692.14.943.39l6.666 6.667c.25.25.39.589.39.943v16A2.667 2.667 0 0 1 19 27.333H3a2.667 2.667 0 0 1-2.667-2.666V3.333Zm18.115 5.334-4.781-4.781v4.78h4.78ZM11 3.333H3v21.334h16V11.333h-6.667A1.333 1.333 0 0 1 11 10V3.333Z"/><path fill="currentColor" d="M9.941 13.722c0-.597.49-1.055 1.059-1.055.57 0 1.059.458 1.059 1.055v3.735a.39.39 0 0 0 .258.361c.156.06.334.023.45-.091l.431-.423a1.06 1.06 0 0 1 1.486 0c.421.413.421 1.09 0 1.503l-2.94 2.89a1.06 1.06 0 0 1-1.487 0l-2.941-2.89a1.053 1.053 0 0 1 0-1.503 1.06 1.06 0 0 1 1.486 0l.43.423a.43.43 0 0 0 .451.091.39.39 0 0 0 .258-.36v-3.736Z"/></symbol><symbol xmlns="http://www.w3.org/2000/svg" id="warningCircle" fill="none" viewBox="0 0 20 20"><path fill="currentColor" d="M10 2a8 8 0 1 0 0 16 8 8 0 0 0 0-16ZM0 10C0 4.477 4.477 0 10 0s10 4.477 10 10-4.477 10-10 10S0 15.523 0 10Z"/><path fill="currentColor" d="M10 12a1 1 0 0 1-1-1V5a1 1 0 0 1 2 0v6a1 1 0 0 1-1 1Zm-1.5 2.5a1.5 1.5 0 1 1 3 0 1.5 1.5 0 0 1-3 0Z"/></symbol></svg>