<svg width="0" height="0"><symbol xmlns="http://www.w3.org/2000/svg" id="calendar" fill="none" viewBox="0 0 19 20"><path fill="currentColor" fill-rule="evenodd" d="M4.56 0a1 1 0 0 1 1 1v.543h8.19V1a1 1 0 1 1 2 0v.604c1.714.317 3 1.834 3 3.639V16.3c0 2.032-1.63 3.7-3.667 3.7H4.417C2.38 20 .75 18.332.75 16.3V5.243a3.696 3.696 0 0 1 2.81-3.599V1a1 1 0 0 1 1-1Zm-.02 3.543h-.123c-.91 0-1.667.75-1.667 1.7v.671h14v-.671c0-.95-.758-1.7-1.667-1.7H4.58a1.066 1.066 0 0 1-.04 0Zm12.21 4.371h-14V16.3c0 .95.758 1.7 1.667 1.7h10.666c.91 0 1.667-.75 1.667-1.7V7.914Z" clip-rule="evenodd"/></symbol><symbol xmlns="http://www.w3.org/2000/svg" id="check" fill="none" viewBox="0 0 24 24"><path stroke="currentColor" stroke-linecap="round" stroke-linejoin="round" stroke-width="2.5" d="m4.892 13.269 4.274 4.274L18.709 8"/></symbol><symbol xmlns="http://www.w3.org/2000/svg" id="close" fill="none" viewBox="0 0 24 24"><path fill="currentColor" d="M5.293 5.293a1 1 0 0 1 1.414 0L12 10.586l5.293-5.293a1 1 0 1 1 1.414 1.414L13.414 12l5.293 5.293a1 1 0 0 1-1.414 1.414L12 13.414l-5.293 5.293a1 1 0 0 1-1.414-1.414L10.586 12 5.293 6.707a1 1 0 0 1 0-1.414Z"/></symbol></svg>