<svg width="22" height="28" viewBox="0 0 22 28" fill="none" xmlns="http://www.w3.org/2000/svg">
<path fill-rule="evenodd" clip-rule="evenodd" d="M0.333344 3.03823C0.333344 1.71469 1.4115 0.666687 2.70985 0.666687H13.7634C14.0222 0.666687 14.2737 0.768522 14.4615 0.954802L21.37 7.80592C21.5583 7.99269 21.6667 8.24899 21.6667 8.51912V24.9618C21.6667 26.2854 20.5885 27.3334 19.2902 27.3334H2.70985C1.41151 27.3334 0.333344 26.2854 0.333344 24.9618V3.03823ZM2.70985 2.66932L11 2.66932C11.1026 2.66932 11.201 2.70819 11.2736 2.77737C11.3461 2.84656 11.3869 2.94039 11.3869 3.03823V9.88935C11.3869 10.4561 11.8464 10.8907 12.3817 10.8907C12.917 10.8907 19.2902 10.8907 19.2902 10.8907C19.5038 10.8907 19.677 11.0558 19.677 11.2596V24.9618C19.677 25.1656 19.5038 25.3307 19.2902 25.3307H2.70985C2.49619 25.3307 2.32298 25.1656 2.32298 24.9618V3.03823C2.32298 2.83449 2.49619 2.66932 2.70985 2.66932ZM13.6189 3.2636C13.7653 3.20736 13.9329 3.2416 14.0423 3.3501L18.9967 8.26343C19.1042 8.37004 19.1346 8.52756 19.0738 8.66363C19.0131 8.79971 18.8729 8.88803 18.7178 8.88803H13.7634C13.5497 8.88803 13.3765 8.72287 13.3765 8.51912V3.60579C13.3765 3.45527 13.4724 3.31984 13.6189 3.2636Z" fill="#003790"/>
<path fill-rule="evenodd" clip-rule="evenodd" d="M11 2.66932L2.70985 2.66932C2.49619 2.66932 2.32298 2.83449 2.32298 3.03823V24.9618C2.32298 25.1656 2.49619 25.3307 2.70985 25.3307H19.2902C19.5038 25.3307 19.677 25.1656 19.677 24.9618V11.2596C19.677 11.0558 19.5038 10.8907 19.2902 10.8907H12.3817C11.8464 10.8907 11.3869 10.4561 11.3869 9.88935V3.03823C11.3869 2.94039 11.3461 2.84656 11.2736 2.77737C11.201 2.70819 11.1026 2.66932 11 2.66932ZM11 12.5947C10.4647 12.5947 10.0052 12.8952 10.0052 13.462V18.2282C10.0052 18.3788 9.90928 18.5142 9.76286 18.5704C9.61643 18.6267 9.44886 18.5924 9.33945 18.4839L8.93476 18.0826C8.54739 17.6984 7.92586 17.6984 7.53849 18.0826C7.14291 18.4749 7.14291 19.1167 7.53849 19.509L10.3019 22.2495C10.6892 22.6336 11.3108 22.6336 11.6981 22.2495L14.4615 19.509C14.8571 19.1167 14.8571 18.4749 14.4615 18.0826C14.0742 17.6984 13.4526 17.6984 13.0653 18.0826L12.6606 18.4839C12.5512 18.5924 12.3836 18.6267 12.2372 18.5704C12.0907 18.5142 11.9948 18.3788 11.9948 18.2282V13.462C11.9948 12.8952 11.5353 12.5947 11 12.5947Z" fill="#003790"/>
</svg>
