<svg width="22" height="28" viewBox="0 0 22 28" fill="none" xmlns="http://www.w3.org/2000/svg">
<path d="M0.333344 3.33332C0.333344 1.86057 1.52725 0.666656 3.00001 0.666656H13.6667C14.0203 0.666656 14.3594 0.807132 14.6095 1.05718L21.2762 7.72385C21.5262 7.9739 21.6667 8.31304 21.6667 8.66666V24.6667C21.6667 26.1394 20.4728 27.3333 19 27.3333H3.00001C1.52725 27.3333 0.333344 26.1394 0.333344 24.6667V3.33332ZM18.4477 8.66666L13.6667 3.88561V8.66666H18.4477ZM11 3.33332L3.00001 3.33332V24.6667H19V11.3333H12.3333C11.597 11.3333 11 10.7364 11 9.99999V3.33332Z" fill="#F12F34"/>
<path d="M9.94119 13.7222C9.94119 13.1247 10.4303 12.6667 11 12.6667C11.5697 12.6667 12.0588 13.1247 12.0588 13.7222V17.4572C12.0588 17.6159 12.1609 17.7587 12.3168 17.818C12.4726 17.8773 12.651 17.8412 12.7674 17.7268L13.1981 17.3037C13.6104 16.8987 14.2719 16.8987 14.6842 17.3037C15.1053 17.7173 15.1053 18.3938 14.6842 18.8074L11.7431 21.6963C11.3308 22.1012 10.6693 22.1012 10.257 21.6963L7.31578 18.8074C6.89475 18.3938 6.89475 17.7173 7.31578 17.3037C7.72808 16.8987 8.38959 16.8987 8.80188 17.3037L9.23261 17.7268C9.34906 17.8412 9.52741 17.8773 9.68326 17.818C9.83911 17.7587 9.94119 17.6159 9.94119 17.4572L9.94119 13.7222Z" fill="#F12F34"/>
</svg>
