<svg xmlns="http://www.w3.org/2000/svg" width="99" height="22"><path fill="#FF4E50" fill-rule="evenodd" d="M62.135 6.961v.11c0 .654-1.804 13.848-1.804 13.985 0 .136-.118.136-.118.136h-5.916l-.118-.136s.932-7.3 1.479-11.502h-2.5a34.048 34.048 0 01-1.108 7.395c-.917 3.411-2.633 4.885-5.132 4.885-1.84-.042-3.331-1.388-3.416-3.084.059-.546 1.967-.737 3.727-4.83a35.835 35.835 0 001.478-6.823.112.112 0 01.029-.09.132.132 0 01.09-.046c4.386-.87 8.923-.87 13.31 0zM18.583.207c1.3-.187 2.621.184 3.587 1.009.965.824 1.47 2.01 1.367 3.22-.059 2.975-3.194 5.99-7.63 7.205l5.353 9.388s.089.136-.089.136h-8.31a.19.19 0 01-.178-.136l-3.328-7.491c-.928.627-1.534 1.581-1.675 2.636-.14 1.054.199 2.115.936 2.93.28.396-1.331 2.73-4.156 2.73-1.26.006-2.464-.483-3.31-1.345-.847-.862-1.257-2.015-1.126-3.172.192-2.974 3.534-5.908 7.97-7.068L2.982 1.08s0-.19.222-.19h7.779c.222 0 .222.163.222.163l3.194 7.532c3.165-1.706 1.36-5.622.71-6.195-.222-.19.65-1.951 3.475-2.183zm78.882 15.064c-.577 4.516 1.642 3.547 1.168 4.311-.877 1.238-2.36 1.994-3.963 2.02a3.7 3.7 0 01-2.599-.887c-.698-.61-1.095-1.46-1.098-2.347-1.061 1.828-3.054 3.035-5.294 3.206-3.875 0-5.516-4.161-4.984-8.09.532-3.93 3.18-7.342 7.202-7.383 1.892-.012 3.584 1.084 4.215 2.73.162-1.201.28-1.802.28-1.965 0-.164.178-.164.178-.164h6.167a.136.136 0 01.089.136s-1.08 6.468-1.361 8.433zm-5.753-1.447c.222-2.128-.31-3.861-1.819-3.861-1.508 0-2.528 1.733-2.795 3.861-.266 2.129.281 3.834 1.79 3.834 1.508 0 2.543-1.705 2.824-3.834zm-49.29-7s-1.064 6.495-1.345 8.406c-.592 4.516 1.626 3.547 1.227 4.311-.877 1.238-2.361 1.994-3.963 2.02-.971.06-1.926-.253-2.638-.866s-1.117-1.47-1.119-2.368c-1.06 1.828-3.054 3.035-5.294 3.206-3.874 0-5.516-4.202-4.984-8.09.533-3.89 3.165-7.355 7.202-7.355 1.892-.013 3.585 1.083 4.215 2.729.163-1.201.281-1.801.281-1.965 0-.164.178-.164.178-.164h6.152a.134.134 0 01.088.137zm-7.172 6.987l.015.013c.251-2.128-.31-3.861-1.82-3.861-1.508 0-2.543 1.72-2.81 3.848-.265 2.128.282 3.834 1.79 3.834 1.509 0 2.544-1.706 2.825-3.834zM74.735.002c6.211-.163 8.237 8.378-4.259 9.633l-.148.573c3.505-1.105 8.46-.313 8.8 3.78.369 4.598-3.698 7.723-8.341 7.723-4.644 0-7.173-3.234-7.173-7.15 0-6.18 3.92-14.381 11.121-14.559zm-1.109 3.725c-1.33 0-2.218 2.784-2.529 3.78 0 0 3.047-1.283 3.298-3.016.03-.368 0-.764-.769-.764zm-.133 11.585c.089-1.474-.459-2.47-1.937-2.73a5.169 5.169 0 00-1.775.123c-.251 1.242-.932 5.758 1.316 5.758 1.597 0 2.396-2.333 2.396-3.151z"/></svg>