<svg width="87" height="16" fill="none" xmlns="http://www.w3.org/2000/svg"><path fill-rule="evenodd" clip-rule="evenodd" d="M25.5399 11.8781c-.7669 0-1.5166-.2273-2.1545-.6532-.6378-.4259-1.135-1.0313-1.429-1.73971-.2939-.70839-.3712-1.48799-.2223-2.24033.149-.75234.5176-1.44366 1.0592-1.98661.5417-.54295 1.2321-.91318 1.9841-1.06392.752-.15073 1.5318-.07521 2.2409.21702.7091.29224 1.3156.78808 1.743 1.42489.4275.6368.6565 1.386.6584 2.15294.0016.51038-.0976 1.01605-.2919 1.48801-.1943.47195-.4799.90091-.8403 1.26221-.3605.3613-.7888.6479-1.2603.8433-.4714.1954-.9769.2958-1.4873.2954zm0-11.87818992C24.1935-.0039061 22.8679.332098 21.6859.976803c-1.182.644707-2.1823 1.577267-2.9081 2.711307-.7258 1.13405-1.1537 2.43291-1.244 3.77629-.0904 1.34338.1597 2.6878.7271 3.9089.5674 1.221 1.4337 2.2791 2.5187 3.0763 1.0851.7972 2.3538 1.3077 3.6885 1.4843 1.3348.1765 2.6926.0134 3.9476-.4744 1.255-.4877 2.3666-1.2842 3.2319-2.3158-.501.9585-1.2545 1.7617-2.1789 2.323v.4137H33.52V7.96773c-.0081-2.11071-.8501-4.13267-2.3426-5.62518C29.6849.850038 27.6629.00798172 25.5522-.00008992h-.0123zM63.9326 11.9516h-5.2649V9.35903h5.1668c.6466 0 1.4005.61291 1.4005 1.29937-.0032.3436-.1418.672-.3856.9141-.2438.2421-.5732.3783-.9168.3791zm-5.2649-7.90036h4.4221c.3318.02455.6434.16847.8772.40511.2339.23663.374.54997.3946.882-.0043.17882-.0442.35499-.1174.5182-.0733.16321-.1783.31018-.309.43231-.1307.12213-.2844.21698-.4522.27898-.1678.06201-.3462.08993-.525.08214h-4.2903V4.05124zm8.8626 3.46907c.4776-.7302.746-1.5772.7762-2.44914.0303-.87193-.1788-1.73551-.6045-2.49704-.4329-.74002-1.0505-1.35499-1.7923-1.784733-.7419-.429743-1.5826-.65954-2.4399-.666905h-8.8504V15.8804h9.9016c1.2669.0155 2.4881-.4725 3.3954-1.3568.9074-.8843 1.4265-2.0927 1.4435-3.3595.0077-.7094-.1553-1.41022-.4753-2.04333-.32-.63312-.7877-1.17995-1.3634-1.59433l.0091-.00613zM50.6049 5.939c1.33 3.58552 1.3974 6.8401 1.3974 9.9475h-4.1004c0-2.5221-.0888-4.8174-.6129-6.89215-.7048-2.7826-2.0226-4.80214-3.2453-4.80214-1.2228 0-2.5436 2.01954-3.2485 4.80214-.5301 2.07475-.6129 4.31185-.6129 6.89215h-4.1187c0-2.8286.0643-6.36198 1.3944-9.9475 1.238-3.34648 3.5518-5.93908992 6.5795-5.93908992 3.0278 0 5.3385 2.59260992 6.5766 5.93295992l-.0092.00613zM11.8475.131686h4.1127V1.78961c.0025 1.19133-.2621 2.36809-.7744 3.44364-.5123 1.07556-1.2593 2.02255-2.186 2.77126.9258.7502 1.6721 1.69792 2.1843 2.77379.5122 1.0758.7773 2.2526.7761 3.4442v1.6579h-4.1127v-2.0747c0-1.0257-.4074-2.0094-1.1327-2.7347-.7253-.7253-1.709-1.13277-2.73471-1.13277-1.02572 0-2.00942.40747-2.73471 1.13277-.72529.7253-1.13275 1.709-1.13275 2.7347v2.0747H.00000826v-1.6579C-.00170567 13.0308.263271 11.8539.775513 10.778 1.28776 9.70207 2.03428 8.75442 2.96036 8.00451 2.03468 7.25491 1.2884 6.30775.776174 5.2324.263948 4.15704-.00124832 2.98072.00000826 1.78961V.128621H4.11263V2.20332c0 .50788.10003 1.01079.29439 1.48001.19436.46922.47923.89557.83836 1.25469.35913.35913.78547.64401 1.25469.83836.46923.19436.97214.2944 1.48002.2944.50788 0 1.01079-.10004 1.48001-.2944.46922-.19435.8956-.47923 1.2547-.83836.3591-.35912.644-.78547.8384-1.25469.1943-.46922.2943-.97213.2943-1.48001V.128621v.003065zM78.8906 11.8781c-.7674.0024-1.5184-.2228-2.1578-.6473-.6394-.4244-1.1386-1.0289-1.4344-1.73709-.2958-.70818-.3749-1.48817-.2273-2.24131.1475-.75314.5152-1.4456 1.0563-1.98978.5412-.54418 1.2316-.91563 1.9839-1.06736.7523-.15173 1.5328-.07693 2.2426.21494.7098.29187 1.317.7877 1.745 1.42477.428.63707.6574 1.38675.6592 2.15421.0008 1.02709-.406 2.01252-1.1311 2.73992-.7251.7274-1.7093 1.1374-2.7364 1.1398v.0092zm7.9678-3.92876c-.0113-1.87693-.6828-3.69-1.8969-5.12145C83.7474 1.39645 82.0683.437971 80.2183.120439c-1.8499-.317533-3.7525.026143-5.3745.970791-1.6219.94465-2.8596 2.43-3.4962 4.19573-.6366 1.76572-.6314 3.69916.0146 5.46144.6461 1.7623 1.8917 3.241 3.5187 4.177 1.6269.9359 3.5314 1.2694 5.3796.942 1.8482-.3275 3.5222-1.2949 4.7286-2.7328-.5019.9577-1.2552 1.7608-2.1789 2.3229v.4137h4.0482V7.94934z" fill="#E84249"/></svg>