<svg xmlns="http://www.w3.org/2000/svg" width="27" height="15"><defs><clipPath id="a"><path d="M26.428 13.547a1.805 1.805 0 0 0-.088-.171c-.454-.822-1.32-1.83-2.6-3.026l-.026-.027-.014-.014-.014-.013h-.013c-.58-.557-.948-.931-1.102-1.123-.282-.365-.345-.735-.191-1.109.109-.283.517-.88 1.225-1.793.372-.484.666-.871.884-1.163 1.57-2.1 2.25-3.44 2.04-4.025l-.08-.136c-.055-.083-.195-.158-.422-.226-.227-.069-.517-.08-.87-.034l-3.92.027a.506.506 0 0 0-.272.007l-.177.04-.068.035-.054.041a.607.607 0 0 0-.15.144.94.94 0 0 0-.135.24 22.412 22.412 0 0 1-1.456 3.08 29.188 29.188 0 0 1-.926 1.471c-.281.415-.517.72-.707.917-.19.196-.363.353-.517.472-.155.119-.272.17-.354.15a9.842 9.842 0 0 1-.231-.054.908.908 0 0 1-.306-.335 1.508 1.508 0 0 1-.157-.534 5.922 5.922 0 0 1-.048-.555 11.64 11.64 0 0 1 .007-.657c.01-.283.014-.474.014-.575 0-.347.007-.723.02-1.129l.034-.965c.01-.237.014-.488.014-.753s-.016-.472-.048-.623a2.14 2.14 0 0 0-.142-.438.736.736 0 0 0-.28-.328 1.567 1.567 0 0 0-.455-.185c-.48-.11-1.093-.17-1.837-.178-1.687-.018-2.771.091-3.252.329-.19.1-.363.237-.517.41-.163.201-.186.31-.068.329.544.082.93.278 1.156.588l.082.164c.064.12.127.33.19.63.064.301.105.634.123 1 .045.665.045 1.236 0 1.71a20.49 20.49 0 0 1-.13 1.11 2.23 2.23 0 0 1-.183.642 2.72 2.72 0 0 1-.163.302.235.235 0 0 1-.068.068c-.118.045-.24.069-.368.069-.127 0-.281-.064-.462-.192a3.272 3.272 0 0 1-.565-.527 7.042 7.042 0 0 1-.66-.938 16.39 16.39 0 0 1-.762-1.423l-.218-.398a34.213 34.213 0 0 1-.557-1.115c-.236-.488-.445-.96-.626-1.417A.902.902 0 0 0 5.63.905L5.563.864a.93.93 0 0 0-.218-.116 1.45 1.45 0 0 0-.312-.09L1.304.687c-.38 0-.64.087-.775.26l-.055.082a.445.445 0 0 0-.04.22c0 .1.027.223.081.369A45.294 45.294 0 0 0 2.291 5.34c.639 1.196 1.195 2.158 1.666 2.888.472.73.953 1.42 1.443 2.067.49.648.814 1.063.972 1.246.16.182.284.32.375.41l.34.329c.218.219.537.481.96.787.421.306.888.607 1.4.904a7.578 7.578 0 0 0 1.79.725c.68.187 1.342.262 1.987.226h1.564c.318-.028.558-.128.721-.301l.055-.069a.91.91 0 0 0 .102-.253c.031-.114.047-.24.047-.376-.01-.393.02-.746.088-1.061.068-.315.146-.552.232-.712a1.749 1.749 0 0 1 .524-.602.888.888 0 0 1 .109-.048c.217-.073.474-.002.769.213.295.214.571.479.83.793.258.315.569.669.932 1.061.363.393.68.684.952.876l.272.165c.182.11.418.21.708.3.29.092.544.115.762.07l3.483-.055c.344 0 .612-.058.803-.172.19-.114.303-.24.34-.376.036-.137.038-.292.007-.466a1.725 1.725 0 0 0-.096-.362z"/></clipPath></defs><path fill="#fff" d="M26.428 13.547a1.805 1.805 0 0 0-.088-.171c-.454-.822-1.32-1.83-2.6-3.026l-.026-.027-.014-.014-.014-.013h-.013c-.58-.557-.948-.931-1.102-1.123-.282-.365-.345-.735-.191-1.109.109-.283.517-.88 1.225-1.793.372-.484.666-.871.884-1.163 1.57-2.1 2.25-3.44 2.04-4.025l-.08-.136c-.055-.083-.195-.158-.422-.226-.227-.069-.517-.08-.87-.034l-3.92.027a.506.506 0 0 0-.272.007l-.177.04-.068.035-.054.041a.607.607 0 0 0-.15.144.94.94 0 0 0-.135.24 22.412 22.412 0 0 1-1.456 3.08 29.188 29.188 0 0 1-.926 1.471c-.281.415-.517.72-.707.917-.19.196-.363.353-.517.472-.155.119-.272.17-.354.15a9.842 9.842 0 0 1-.231-.054.908.908 0 0 1-.306-.335 1.508 1.508 0 0 1-.157-.534 5.922 5.922 0 0 1-.048-.555 11.64 11.64 0 0 1 .007-.657c.01-.283.014-.474.014-.575 0-.347.007-.723.02-1.129l.034-.965c.01-.237.014-.488.014-.753s-.016-.472-.048-.623a2.14 2.14 0 0 0-.142-.438.736.736 0 0 0-.28-.328 1.567 1.567 0 0 0-.455-.185c-.48-.11-1.093-.17-1.837-.178-1.687-.018-2.771.091-3.252.329-.19.1-.363.237-.517.41-.163.201-.186.31-.068.329.544.082.93.278 1.156.588l.082.164c.064.12.127.33.19.63.064.301.105.634.123 1 .045.665.045 1.236 0 1.71a20.49 20.49 0 0 1-.13 1.11 2.23 2.23 0 0 1-.183.642 2.72 2.72 0 0 1-.163.302.235.235 0 0 1-.068.068c-.118.045-.24.069-.368.069-.127 0-.281-.064-.462-.192a3.272 3.272 0 0 1-.565-.527 7.042 7.042 0 0 1-.66-.938 16.39 16.39 0 0 1-.762-1.423l-.218-.398a34.213 34.213 0 0 1-.557-1.115c-.236-.488-.445-.96-.626-1.417A.902.902 0 0 0 5.63.905L5.563.864a.93.93 0 0 0-.218-.116 1.45 1.45 0 0 0-.312-.09L1.304.687c-.38 0-.64.087-.775.26l-.055.082a.445.445 0 0 0-.04.22c0 .1.027.223.081.369A45.294 45.294 0 0 0 2.291 5.34c.639 1.196 1.195 2.158 1.666 2.888.472.73.953 1.42 1.443 2.067.49.648.814 1.063.972 1.246.16.182.284.32.375.41l.34.329c.218.219.537.481.96.787.421.306.888.607 1.4.904a7.578 7.578 0 0 0 1.79.725c.68.187 1.342.262 1.987.226h1.564c.318-.028.558-.128.721-.301l.055-.069a.91.91 0 0 0 .102-.253c.031-.114.047-.24.047-.376-.01-.393.02-.746.088-1.061.068-.315.146-.552.232-.712a1.749 1.749 0 0 1 .524-.602.888.888 0 0 1 .109-.048c.217-.073.474-.002.769.213.295.214.571.479.83.793.258.315.569.669.932 1.061.363.393.68.684.952.876l.272.165c.182.11.418.21.708.3.29.092.544.115.762.07l3.483-.055c.344 0 .612-.058.803-.172.19-.114.303-.24.34-.376.036-.137.038-.292.007-.466a1.725 1.725 0 0 0-.096-.362z"/><g clip-path="url(#a)"><path fill="#a1afbf" d="M-30.6-31.5h86.567V48H-30.6z"/></g></svg>