<svg xmlns="http://www.w3.org/2000/svg" width="17" height="25"><defs><clipPath id="a"><path d="M11.864 6.568c-.006-1.65-1.496-2.964-3.363-2.966C6.618 3.6 5.115 4.938 5.129 6.604c.014 1.645 1.517 2.95 3.39 2.943 1.866-.005 3.352-1.328 3.345-2.979zm-3.418 6.08C4.684 12.636 1.599 9.885 1.62 6.56 1.643 3.2 4.729.49 8.528.5c3.807.01 6.862 2.757 6.843 6.153-.02 3.317-3.125 6.006-6.925 5.995zM7.16 17.405c-2.109-.194-4.01-.653-5.638-1.776-.202-.14-.41-.274-.595-.43-.712-.604-.784-1.296-.22-2.008.482-.61 1.292-.773 2.133-.423.163.068.319.152.467.243 3.034 1.84 7.202 1.89 10.247.083a2.92 2.92 0 0 1 .998-.455c.726-.165 1.404.07 1.794.632.446.64.44 1.266-.11 1.763-.841.763-1.854 1.314-2.98 1.7-1.063.363-2.229.547-3.382.668.174.168.256.25.365.346 1.566 1.389 3.14 2.771 4.7 4.164.532.475.643 1.063.35 1.615-.32.603-1.037 1-1.74.958-.445-.027-.792-.223-1.1-.497-1.182-1.05-2.387-2.08-3.545-3.149-.337-.31-.499-.252-.796.018a225.149 225.149 0 0 1-3.613 3.201c-.546.475-1.196.56-1.829.29-.673-.289-1.1-.895-1.068-1.504.023-.412.253-.726.573-1.009 1.55-1.365 3.096-2.734 4.642-4.102.103-.091.198-.188.347-.328z"/></clipPath></defs><path fill="#f7f9fb" d="M11.864 6.568c-.006-1.65-1.496-2.964-3.363-2.966C6.618 3.6 5.115 4.938 5.129 6.604c.014 1.645 1.517 2.95 3.39 2.943 1.866-.005 3.352-1.328 3.345-2.979zm-3.418 6.08C4.684 12.636 1.599 9.885 1.62 6.56 1.643 3.2 4.729.49 8.528.5c3.807.01 6.862 2.757 6.843 6.153-.02 3.317-3.125 6.006-6.925 5.995zM7.16 17.405c-2.109-.194-4.01-.653-5.638-1.776-.202-.14-.41-.274-.595-.43-.712-.604-.784-1.296-.22-2.008.482-.61 1.292-.773 2.133-.423.163.068.319.152.467.243 3.034 1.84 7.202 1.89 10.247.083a2.92 2.92 0 0 1 .998-.455c.726-.165 1.404.07 1.794.632.446.64.44 1.266-.11 1.763-.841.763-1.854 1.314-2.98 1.7-1.063.363-2.229.547-3.382.668.174.168.256.25.365.346 1.566 1.389 3.14 2.771 4.7 4.164.532.475.643 1.063.35 1.615-.32.603-1.037 1-1.74.958-.445-.027-.792-.223-1.1-.497-1.182-1.05-2.387-2.08-3.545-3.149-.337-.31-.499-.252-.796.018a225.149 225.149 0 0 1-3.613 3.201c-.546.475-1.196.56-1.829.29-.673-.289-1.1-.895-1.068-1.504.023-.412.253-.726.573-1.009 1.55-1.365 3.096-2.734 4.642-4.102.103-.091.198-.188.347-.328z"/><g clip-path="url(#a)"><path fill="#a1afbf" d="M-16-10h49v45h-49z"/></g></svg>