<svg xmlns="http://www.w3.org/2000/svg" width="11" height="21"><defs><clipPath id="a"><path d="M2.718 4.067v2.891H.6v3.536h2.118V21H7.07V10.494h2.92s.274-1.695.406-3.549h-3.31V4.528c0-.361.475-.847.944-.847h2.37V0H7.177C2.61 0 2.718 3.539 2.718 4.067z"/></clipPath></defs><path fill="#fff" d="M2.718 4.067v2.891H.6v3.536h2.118V21H7.07V10.494h2.92s.274-1.695.406-3.549h-3.31V4.528c0-.361.475-.847.944-.847h2.37V0H7.177C2.61 0 2.718 3.539 2.718 4.067z"/><g clip-path="url(#a)"><path fill="#a1afbf" d="M-38.6-28.5h86.567V51H-38.6z"/></g></svg>