<svg xmlns="http://www.w3.org/2000/svg" width="128" height="40" viewBox="0 0 128 40"><g><g><g><path fill="#a1afbf" d="M23.7 29.24a5.436 5.436 0 0 0-3.7-.23c-.9.45-1.91.82-2.55.11a12.3 12.3 0 0 1-3-4.894c-.57-2.001-.65-4.824.88-6.605a3.779 3.779 0 0 1 2.81-1.381h.13c.464.047.919.162 1.35.34l.19.07a3.458 3.458 0 0 0 2 .26c.36-.09.7-.19 1.05-.3a5.996 5.996 0 0 1 2.48-.41c.451.05.887.193 1.28.42.228.14.443.3.64.48 0 0 .19.19.33.351a5.916 5.916 0 0 0-1.87 4.003c0 1.481.9 2.742 2.6 3.763-.53 1.37-1.57 3.292-2.27 3.733-.636.6-1.587.717-2.35.29zm3.1-7.77A5 5 0 0 1 28.64 18l.22-.14v-.25c0-.1 0-.37-.86-1.18a5 5 0 0 0-.82-.6 4.17 4.17 0 0 0-1.67-.55 7 7 0 0 0-2.89.44c-.328.113-.662.21-1 .29a2.72 2.72 0 0 1-1.45-.24l-.17-.1a5.71 5.71 0 0 0-1.64-.4A4.8 4.8 0 0 0 14.63 17c-1.52 1.77-1.92 4.58-1.08 7.52a13.52 13.52 0 0 0 3.16 5.29 2.15 2.15 0 0 0 1.66.73 4.8 4.8 0 0 0 2.09-.62 4.5 4.5 0 0 1 2.83.23 3 3 0 0 0 3.3-.36c1.29-.82 2.74-4.19 2.9-4.57l.18-.42-.4-.22c-1.6-.87-2.43-1.91-2.47-3.11zm-2.27-10.82v-.04zm-.71 2.08a3.28 3.28 0 0 1-2 1.14 3.54 3.54 0 0 1 2.71-3.22 3.64 3.64 0 0 1-.71 2.08zM20.87 15h.5a4.54 4.54 0 0 0 3.24-1.6 5 5 0 0 0 .9-3.42l-.07-.51-.5.08a4.71 4.71 0 0 0-4.12 5zm42.05 7.19a2.86 2.86 0 0 1-.45 1.67 1.54 1.54 0 0 1-1.35.65 1.78 1.78 0 0 1-.93-.23 1.83 1.83 0 0 1-.62-.67V20.3a1.88 1.88 0 0 1 .62-.66 1.6 1.6 0 0 1 .92-.25 1.48 1.48 0 0 1 1.35.75c.33.584.49 1.25.46 1.92zm-1.44-3.81a2.39 2.39 0 0 0-1.16.26 2.16 2.16 0 0 0-.84.75l-.2-.89h-.95V28h1.24v-3.35c.219.273.5.489.82.63.35.154.728.23 1.11.22a2.37 2.37 0 0 0 2-.91 3.83 3.83 0 0 0 .71-2.4v-.13a4.56 4.56 0 0 0-.71-2.67 2.26 2.26 0 0 0-2-1.01zm9.25 1.126a1.208 1.208 0 0 1-.54-.999 1.398 1.398 0 0 1 .5-1.098c.413-.302.92-.447 1.43-.41a2.192 2.192 0 0 1 1.54.5c.36.341.553.822.53 1.318h1.2a2.446 2.446 0 0 0-.87-1.928 3.422 3.422 0 0 0-2.4-.889 3.513 3.513 0 0 0-2.29.72c-.563.43-.892 1.099-.89 1.807a2.117 2.117 0 0 0 .83 1.709 5.493 5.493 0 0 0 2.28.998c.61.103 1.19.346 1.69.71.3.266.471.648.47 1.049.011.429-.196.835-.55 1.078-.445.28-.965.417-1.49.39a2.702 2.702 0 0 1-1.62-.46 1.538 1.538 0 0 1-.65-1.348h-1.2a2.247 2.247 0 0 0 1 1.998c.713.51 1.573.776 2.45.759.846.038 1.682-.2 2.38-.68.588-.407.93-1.083.91-1.797a2.266 2.266 0 0 0-.76-1.739 5.003 5.003 0 0 0-2.2-.978 5.203 5.203 0 0 1-1.75-.71zm21.14-1.136a1.65 1.65 0 0 0-1 .3 2.18 2.18 0 0 0-.72.83l-.12-1h-1.12v6.86h1.25v-4.9a1.51 1.51 0 0 1 .53-.66 1.45 1.45 0 0 1 .83-.23h.64l.17-1.16a.81.81 0 0 0-.21-.05 1.14 1.14 0 0 0-.27.02zm-12.19 6.06h-.24a.74.74 0 0 1-.53-.2.94.94 0 0 1-.2-.68v-4.12H80v-.93h-1.3v-1.65h-1.25v1.65h-1.09v.93h1.09v4.16A2 2 0 0 0 77.9 25c.323.313.76.48 1.21.46a2 2 0 0 0 .54-.08 1.32 1.32 0 0 0 .41-.18l-.17-.86a.77.77 0 0 1-.23.1zm-24.1-2.25a2.86 2.86 0 0 1-.45 1.67 1.54 1.54 0 0 1-1.35.65 1.78 1.78 0 0 1-.93-.23 1.72 1.72 0 0 1-.61-.67v-3.3a1.77 1.77 0 0 1 .61-.66 1.6 1.6 0 0 1 .92-.25 1.47 1.47 0 0 1 1.35.75c.33.584.49 1.25.46 1.92zm-1.44-3.81a2.39 2.39 0 0 0-1.16.26 2.16 2.16 0 0 0-.84.75l-.2-.89H51V28h1.25v-3.35c.213.275.491.491.81.63.35.154.728.23 1.11.22a2.35 2.35 0 0 0 2-.91 3.77 3.77 0 0 0 .71-2.4v-.13a4.49 4.49 0 0 0-.71-2.67 2.26 2.26 0 0 0-2.05-1.01zm32 3.63a3.2 3.2 0 0 1-.47 1.79 1.49 1.49 0 0 1-1.35.71 1.51 1.51 0 0 1-1.32-.7 3.2 3.2 0 0 1-.51-1.8v-.14a3.2 3.2 0 0 1 .51-1.78 1.51 1.51 0 0 1 1.35-.72 1.53 1.53 0 0 1 1.37.72 3.2 3.2 0 0 1 .47 1.79zm-4.02-2.62a3.8 3.8 0 0 0-.83 2.51V22c-.034.91.26 1.8.83 2.51a3.06 3.06 0 0 0 4.49 0 3.76 3.76 0 0 0 .78-2.51v-.14a3.76 3.76 0 0 0-.83-2.51 2.77 2.77 0 0 0-2.242-.97 2.77 2.77 0 0 0-2.198 1zm-37.77 2.56l1.54-4.2 1.52 4.2zm1-5.81l-3.57 9.23h1.28l.87-2.36h3.87l.86 2.37h1.27l-3.51-9.23zm52.11 5.11H94.3c.05-.485.24-.944.55-1.32a1.35 1.35 0 0 1 1.07-.53 1.42 1.42 0 0 1 1.17.49c.267.353.405.787.39 1.23zm-1.56-2.86a2.66 2.66 0 0 0-2.06 1 3.48 3.48 0 0 0-.84 2.41v.28a3.6 3.6 0 0 0 .85 2.47 2.87 2.87 0 0 0 2.28 1 3.75 3.75 0 0 0 1.46-.25 3 3 0 0 0 1-.6l-.59-.85a2.53 2.53 0 0 1-.83.49 3.15 3.15 0 0 1-1.11.18 1.6 1.6 0 0 1-1.35-.63 2.71 2.71 0 0 1-.5-1.62h4.45v-.78a3.38 3.38 0 0 0-.66-2.27 2.64 2.64 0 0 0-2.1-.83zM127 36a3 3 0 0 1-3 3H4a3 3 0 0 1-3-3V4a3 3 0 0 1 3-3h120a3 3 0 0 1 3 3zm-3-36H4a4 4 0 0 0-4 4v32a4 4 0 0 0 4 4h120a4 4 0 0 0 4-4V4a4 4 0 0 0-4-4z"/></g></g></g></svg>