<svg xmlns="http://www.w3.org/2000/svg" width="24" height="19"><defs><clipPath id="a"><path d="M24.19 2.63c-.888.361-1.84.606-2.842.716 1.022-.563 1.805-1.454 2.175-2.514-.958.521-2.016.899-3.144 1.104C19.476 1.051 18.192.5 16.767.5c-2.733 0-4.949 2.036-4.949 4.545 0 .356.044.703.129 1.035-4.113-.19-7.76-2-10.2-4.75a4.234 4.234 0 0 0-.669 2.286c0 1.577.874 2.968 2.2 3.783a5.287 5.287 0 0 1-2.24-.57v.056c0 2.202 1.706 4.04 3.968 4.457a5.43 5.43 0 0 1-1.303.16c-.32 0-.63-.03-.932-.085.63 1.807 2.457 3.121 4.622 3.157-1.693 1.219-3.828 1.943-6.146 1.943-.4 0-.793-.022-1.18-.062A14.9 14.9 0 0 0 7.652 18.5c9.103 0 14.08-6.926 14.08-12.933l-.017-.589A9.482 9.482 0 0 0 24.19 2.63z"/></clipPath></defs><path fill="#fff" d="M24.19 2.63c-.888.361-1.84.606-2.842.716 1.022-.563 1.805-1.454 2.175-2.514-.958.521-2.016.899-3.144 1.104C19.476 1.051 18.192.5 16.767.5c-2.733 0-4.949 2.036-4.949 4.545 0 .356.044.703.129 1.035-4.113-.19-7.76-2-10.2-4.75a4.234 4.234 0 0 0-.669 2.286c0 1.577.874 2.968 2.2 3.783a5.287 5.287 0 0 1-2.24-.57v.056c0 2.202 1.706 4.04 3.968 4.457a5.43 5.43 0 0 1-1.303.16c-.32 0-.63-.03-.932-.085.63 1.807 2.457 3.121 4.622 3.157-1.693 1.219-3.828 1.943-6.146 1.943-.4 0-.793-.022-1.18-.062A14.9 14.9 0 0 0 7.652 18.5c9.103 0 14.08-6.926 14.08-12.933l-.017-.589A9.482 9.482 0 0 0 24.19 2.63z"/><g clip-path="url(#a)"><path fill="#a1afbf" d="M-32.6-29.5h86.567V50H-32.6z"/></g></svg>