<svg xmlns="http://www.w3.org/2000/svg" width="128" height="40" viewBox="0 0 128 40"><g><g><g><path fill="#a1afbf" d="M31.37 20.42l-3.57 2.1-2.55-2.55 2.55-2.57 3.55 2.05a.53.53 0 0 1 .28.47.55.55 0 0 1-.27.47zm-15.37 9a.49.49 0 0 1-.36.07l8.9-8.84L26.9 23zm-.82-18.15l8.66 8.67-8.66 8.61zm.82-.69l10.92 6.31-2.37 2.35-8.69-8.69a.37.37 0 0 1 .14.03zm.49-.87a1.54 1.54 0 0 0-1.55 0 1.52 1.52 0 0 0-.77 1.34V29a1.54 1.54 0 0 0 2.33 1.33l15.36-9a1.54 1.54 0 0 0 .77-1.35 1.52 1.52 0 0 0-.78-1.4zm38.5 10.48a3.007 3.007 0 0 1-.439 1.71 1.574 1.574 0 0 1-2.572 0 3.107 3.107 0 0 1-.429-1.71v-.13a3.097 3.097 0 0 1 .429-1.7 1.554 1.554 0 0 1 2.572 0c.307.512.46 1.103.439 1.7zm-1.685-3.44a2.604 2.604 0 0 0-2.126.94 3.564 3.564 0 0 0-.779 2.37v.14c-.035.86.245 1.703.789 2.37a2.883 2.883 0 0 0 4.242 0c.545-.666.826-1.51.789-2.37v-.14a3.604 3.604 0 0 0-.789-2.38 2.623 2.623 0 0 0-2.126-.93zm45.785 4.665c-.14.316-.378.578-.68.747a2.097 2.097 0 0 1-1.15.328 1.114 1.114 0 0 1-.8-.249.874.874 0 0 1-.27-.677c0-.333.16-.647.43-.846a1.695 1.695 0 0 1 1.14-.358h1.33zm1.18.645v-3.13a2 2 0 0 0-.67-1.62 2.71 2.71 0 0 0-1.78-.56 2.75 2.75 0 0 0-1.82.59 1.56 1.56 0 0 0-.67 1.3h1.13a.89.89 0 0 1 .36-.71 1.41 1.41 0 0 1 .92-.29 1.34 1.34 0 0 1 1 .34c.239.237.366.564.35.9v.64h-1.2a3.5 3.5 0 0 0-2 .53 1.67 1.67 0 0 0-.76 1.46 1.92 1.92 0 0 0 .49 1.49c.426.374.985.56 1.55.52a2.15 2.15 0 0 0 1.15-.32 2.81 2.81 0 0 0 .86-.78c-.015.15-.015.3 0 .45 0 .15 0 .33.09.52h1.22a3.36 3.36 0 0 1-.13-.63 5.001 5.001 0 0 1 0-.7zm-8 1.31h1.18V14h-1.14zM62 20.19a3.1 3.1 0 0 1-.44 1.71 1.58 1.58 0 0 1-2.58 0 3.1 3.1 0 0 1-.44-1.71v-.13a3.09 3.09 0 0 1 .44-1.7 1.42 1.42 0 0 1 1.28-.68 1.44 1.44 0 0 1 1.29.68 3 3 0 0 1 .45 1.7zm-3.821-2.5a3.564 3.564 0 0 0-.779 2.37v.14c-.034.858.242 1.7.779 2.37a2.893 2.893 0 0 0 4.252 0c.538-.67.815-1.512.779-2.37v-.14a3.594 3.594 0 0 0-.779-2.38 2.663 2.663 0 0 0-2.136-.93 2.594 2.594 0 0 0-2.116.94zm20.571 1.8h-3c.047-.462.228-.9.52-1.26a1.28 1.28 0 0 1 1-.5 1.34 1.34 0 0 1 1.11.47c.255.332.386.742.37 1.16zm-1.485-2.72a2.545 2.545 0 0 0-1.996.919 3.306 3.306 0 0 0-.769 2.306v.27c-.034.854.25 1.69.799 2.346.55.605 1.34.934 2.156.899.47.01.936-.068 1.377-.23.342-.125.654-.318.918-.569l-.459-.769c-.229.202-.493.361-.778.47-.34.117-.699.174-1.058.17a1.517 1.517 0 0 1-1.278-.6 2.587 2.587 0 0 1-.47-1.537h4.213v-.74a3.116 3.116 0 0 0-.669-2.106 2.455 2.455 0 0 0-1.976-.849zm26.955 5L104 21l-1.37-4.09h-1.32l2.41 6.37-.28.68a3.84 3.84 0 0 1-.4.75.74.74 0 0 1-.62.33h-.53l-.12.93.34.07h.37a1.61 1.61 0 0 0 1.24-.49 3.33 3.33 0 0 0 .71-1.14l2.73-7.5h-1.32zm-15-3.32a1.77 1.77 0 0 1-1.33.47h-2.15v-3.36h2.16c.489-.04.97.136 1.32.48a1.87 1.87 0 0 1 0 2.42zm-1.33-3.84h-3.34v8.75h1.19v-3.5h2.16a3.05 3.05 0 0 0 2.17-.71 2.45 2.45 0 0 0 .78-1.91 2.45 2.45 0 0 0-.78-1.89 3.06 3.06 0 0 0-2.17-.73zm-19.14 7a2 2 0 0 1-.59.69 1.59 1.59 0 0 1-.9.24 1.42 1.42 0 0 1-1.26-.6 2.65 2.65 0 0 1-.42-1.57v-.13a3.55 3.55 0 0 1 .42-1.82 1.39 1.39 0 0 1 1.27-.71c.315-.01.626.077.89.25.246.166.448.39.59.65zm.1-3.89a2.23 2.23 0 0 0-.78-.72 2.4 2.4 0 0 0-1.07-.25 2.21 2.21 0 0 0-1.9 1 4.33 4.33 0 0 0-.68 2.53v.13a3.56 3.56 0 0 0 .68 2.26 2.28 2.28 0 0 0 1.9.83 2.38 2.38 0 0 0 1-.21 2.12 2.12 0 0 0 .76-.61v.73a1.63 1.63 0 0 1-.39 1.2 1.76 1.76 0 0 1-1.26.39c-.3.002-.6-.035-.89-.11a2.88 2.88 0 0 1-.77-.29l-.3.92a4 4 0 0 0 1 .35 4.18 4.18 0 0 0 1 .13 3 3 0 0 0 2.1-.67 2.5 2.5 0 0 0 .72-1.92v-6.54H69zm2.9 5.65h1.18V14h-1.17zm-26-3.43h1.92v2a1.67 1.67 0 0 1-.68.45 3.24 3.24 0 0 1-1.22.2 2.23 2.23 0 0 1-1.77-.77 2.76 2.76 0 0 1-.69-1.92v-1.82a2.89 2.89 0 0 1 .62-1.9 2 2 0 0 1 1.61-.75 2.14 2.14 0 0 1 1.52.49c.349.33.556.78.58 1.26h1.16a2.42 2.42 0 0 0-.88-1.9 3.51 3.51 0 0 0-2.36-.74 3.23 3.23 0 0 0-2.46 1 3.61 3.61 0 0 0-1 2.6v1.8a3.47 3.47 0 0 0 1 2.6 3.53 3.53 0 0 0 2.59 1 4.31 4.31 0 0 0 2-.4 2.86 2.86 0 0 0 1.08-.89V19h-3.1zM127 36a3 3 0 0 1-3 3H4a3 3 0 0 1-3-3V4a3 3 0 0 1 3-3h120a3 3 0 0 1 3 3zm-3-36H4a4 4 0 0 0-4 4v32a4 4 0 0 0 4 4h120a4 4 0 0 0 4-4V4a4 4 0 0 0-4-4z"/></g></g></g></svg>