<svg width="194" height="32" viewBox="0 0 194 32" fill="none" xmlns="http://www.w3.org/2000/svg">
<path d="M38.4223 8C41.0768 8 43.275 9.18833 44.1874 10.0796L42.6528 11.9894C41.9063 11.3103 40.2472 10.3767 38.4223 10.3767C35.0628 10.3767 32.989 12.7533 32.989 15.9788C32.989 19.2042 34.9798 21.5809 38.4638 21.5809C40.4961 21.5809 42.2381 20.4775 43.0261 19.7135L44.4778 21.7082C43.5653 22.6844 41.2841 24 38.4638 24C33.5281 24 30.5004 20.6048 30.5004 16.0212C30.4589 11.3952 33.5696 8 38.4223 8Z" fill="#292929"/>
<path d="M53.6856 8C58.2479 8 61.566 11.3952 61.566 15.9788C61.566 20.6048 58.2479 23.9576 53.6856 23.9576C49.1232 23.9576 45.8051 20.5623 45.8051 15.9788C45.7637 11.3952 49.0817 8 53.6856 8ZM53.6856 21.5809C56.7963 21.5809 59.0774 19.2042 59.0774 15.9788C59.0774 12.7533 56.7963 10.3767 53.6856 10.3767C50.5749 10.3767 48.2937 12.7533 48.2937 15.9788C48.2937 19.2042 50.5749 21.5809 53.6856 21.5809Z" fill="#292929"/>
<path d="M77.2429 19.2044C77.2429 21.4537 75.8327 23.6182 72.1828 23.6182H64.2195V8.33966H71.7266C74.7543 8.33966 76.4963 10.2495 76.4963 12.4139C76.4963 13.6447 75.9571 14.7481 74.6299 15.6394C75.9571 16.1062 77.2429 17.1248 77.2429 19.2044ZM66.6665 10.7588V14.833L71.3948 14.7906C73.0953 14.7906 73.9663 13.8145 73.9663 12.711C73.9663 11.65 73.2197 10.7588 71.7266 10.7588H66.6665ZM72.3487 21.2415C74.0907 21.2415 74.7543 20.2654 74.7543 19.2044C74.7543 18.0585 73.9663 17.1248 72.3902 17.1248H66.708V21.284H72.3487V21.2415Z" fill="#292929"/>
<path d="M87.073 15.766L93.7092 23.6599H90.4326L84.9163 16.9968H82.0959V23.6599H79.6488V8.38142H82.0959V14.705H84.9163L90.3081 8.38142H93.5847L87.073 15.766Z" fill="#292929"/>
<path d="M101.258 8C105.82 8 109.139 11.3952 109.139 15.9788C109.139 20.6048 105.82 23.9576 101.258 23.9576C96.6958 23.9576 93.3777 20.5623 93.3777 15.9788C93.3777 11.3952 96.6958 8 101.258 8ZM101.258 21.5809C104.369 21.5809 106.65 19.2042 106.65 15.9788C106.65 12.7533 104.369 10.3767 101.258 10.3767C98.1474 10.3767 95.8662 12.7533 95.8662 15.9788C95.8662 19.2042 98.1889 21.5809 101.258 21.5809Z" fill="#292929"/>
<path d="M125.688 8.33966H128.052V23.6182H125.605V12.2866L120.711 18.9922H119.217L114.323 12.2866V23.6606H111.876V8.3821H114.24L119.964 16.2336L125.688 8.33966Z" fill="#292929"/>
<path d="M139.291 14.5784C142.567 14.5784 144.351 16.5306 144.351 19.0771C144.351 21.6235 142.567 23.6182 139.457 23.6182H131.328V8.33966H142.941V10.7588H133.775V14.6208H139.291V14.5784ZM139.374 21.2415C141.074 21.2415 141.862 20.2654 141.862 19.1195C141.862 17.9736 141.074 16.9975 139.374 16.9975H133.816V21.2415H139.374Z" fill="#292929"/>
<path d="M158.038 23.6182L156.421 19.7985H149.37L147.752 23.6182H145.056L151.527 8.33966H154.223L160.693 23.6182H158.038ZM150.282 17.5068H155.425L152.854 11.3954L150.282 17.5068Z" fill="#292929"/>
<path d="M173.633 8.33966H176.08V23.6182H173.633V17.0824H165.006V23.6182H162.559V8.33966H165.006V14.6633H173.633V8.33966Z" fill="#292929"/>
<path d="M186.864 15.766L193.5 23.6599H190.223L184.707 16.9968H181.887V23.6599H179.44V8.38142H181.887V14.705H184.707L190.099 8.38142H193.376L186.864 15.766Z" fill="#292929"/>
<path d="M0.5 16C0.5 22.6221 5.87789 28 12.4999 28C12.6604 28 12.821 28 12.9815 28V23.4649H12.4999C8.4063 23.4649 5.03508 20.1338 5.03508 16C5.03508 11.9064 8.36616 8.53512 12.4999 8.53512H12.9815V4C12.821 4 12.6604 4 12.4999 4C5.87789 4 0.5 9.37793 0.5 16Z" fill="#292929"/>
<path d="M14.9078 4.24117V10.502H12.4998C9.44964 10.502 6.96136 12.9903 6.96136 16.0405C6.96136 19.0907 9.44964 21.579 12.4998 21.579H14.9078V27.8398C20.4061 26.7161 24.4997 21.9 24.4997 16.0806C24.5398 10.181 20.4061 5.36492 14.9078 4.24117Z" fill="#292929"/>
</svg>
